PathFileType	4	(X/Y/Z)	C:\Users\WrightLab\Desktop\Jo\P1.2Trial2.trc
DataRate	CameraRate	NumFrames	NumMarkers	Units	OrigDataRate	OrigDataStartFrame	OrigNumFrames
100.00	100.00	       15	19	mm	100.00	524	       838
Frame#	Time	Headset_Front			Headset_Back			Headset_Left			Headset_Right			Left_Shoulder			Right_Shoulder			Sternum			C7			Left Elbow			Right Elbow			Left Wrist			Right Wrist			Left ASIS			Right ASIS			S2			Left Knee			Right Knee			Left Ankle			Right Ankle			
		X1	Y1	Z1	X2	Y2	Z2	X3	Y3	Z3	X4	Y4	Z4	X5	Y5	Z5	X6	Y6	Z6	X7	Y7	Z7	X8	Y8	Z8	X9	Y9	Z9	X10	Y10	Z10	X11	Y11	Z11	X12	Y12	Z12	X13	Y13	Z13	X14	Y14	Z14	X15	Y15	Z15	X16	Y16	Z16	X17	Y17	Z17	X18	Y18	Z18	X19	Y19	Z19	

524	5.230	-131.18474	1265.97961	-156.63632	-270.06271	1440.74048	-117.54436	-354.29150	1313.34229	-193.28702	-210.81979	1163.72900	-235.60425	-471.62460	1184.97864	-104.18215	-102.95253	1200.44421	49.30803	-288.72083	1065.38354	-52.46514	-327.56216	1310.25220	55.98410	-511.58188	902.23065	-107.36269	-60.03918	1002.28821	212.55814	-394.49622	731.61163	-241.58870	-20.96902	735.74414	172.49727	-221.79640	796.75830	121.52197	-462.10965	814.72357	15.39715	-402.79190	988.32635	276.99026	-556.43243	436.74588	97.97841	-238.54582	425.86172	142.85577	-672.26831	156.57109	292.59442	-284.95123	79.31067	195.71368	
525	5.240	-132.44365	1266.27185	-156.52991	-271.65933	1441.26892	-118.15212	-355.85672	1314.03381	-193.64989	-212.48396	1164.51575	-236.14142	-473.38501	1185.83264	-102.39445	-104.46677	1200.16040	47.21006	-292.51712	1065.90759	-52.44599	-326.74738	1310.09900	55.89269	-515.27936	903.75537	-107.97803	-58.72306	1002.18878	210.88214	-399.06052	732.22961	-241.61440	-20.23129	735.46191	170.22043	-223.57843	796.43542	120.33913	-463.03827	814.90680	14.88788	-402.86783	988.39447	276.49033	-556.36145	437.07681	96.17275	-238.73456	425.39008	141.80557	-671.51971	154.92395	287.89069	-284.37274	80.31208	193.34537	
526	5.250	-135.88773	1266.74683	-158.01413	-272.73895	1442.14063	-118.01973	-357.47009	1315.00989	-193.88811	-214.64119	1165.74304	-237.18765	-476.21573	1188.02417	-104.15981	-103.73170	1199.83789	45.36192	-293.60672	1066.37012	-53.68882	-327.52515	1310.37183	55.42699	-518.31415	905.22357	-108.08987	-58.77466	1001.67633	208.26147	-403.55298	733.13965	-242.48282	-19.65234	735.21735	168.47385	-224.94902	796.48499	118.01037	-465.46820	816.17059	13.72392	-403.22766	988.26074	275.95483	-557.50336	438.25684	93.90295	-239.28540	425.10565	140.43932	-670.34564	152.67421	283.57889				
527	5.260	-136.95915	1267.20593	-158.33737	-273.88995	1442.57495	-118.27014	-359.29868	1315.91260	-193.94360	-216.25652	1166.02893	-237.83467	-478.37411	1188.74060	-103.57558	-104.85307	1199.90173	45.62202	-294.59546	1067.93066	-55.63619	-328.02322	1310.85645	55.51843	-521.19897	906.16156	-107.74162	-61.20700	1000.58466	206.26862	-407.89468	733.76917	-242.19571	-19.80209	734.88293	166.15138	-225.66908	795.53040	117.25501	-465.67715	815.53033	13.25423	-404.01645	987.83350	274.42932	-558.08594	438.21536	91.64736	-240.10001	424.99820	138.97688	-669.75647	150.81479	278.05988				
528	5.270	-137.98010	1268.06213	-159.45857	-275.56107	1443.36877	-118.75879	-361.09753	1316.70361	-193.55429	-218.49727	1167.26794	-238.98349	-480.43781	1190.10168	-103.09698	-106.10131	1199.03345	44.46442	-298.10760	1067.36194	-55.69826	-329.42084	1311.47827	55.44201	-524.57751	907.46460	-107.59521	-61.87514	999.93042	203.86159	-412.09180	735.07306	-243.16179	-19.30617	734.49927	164.43671	-226.57607	796.48999	114.54836	-467.92749	816.67017	11.72920	-403.57120	987.87250	274.49402	-559.57507	439.22293	88.81628	-240.76367	424.65411	138.01073	-669.64392	149.22960	272.65225				
529	5.280	-141.22444	1268.53857	-160.21428	-277.28690	1444.47107	-119.07607	-362.90048	1317.89087	-194.52045	-220.57104	1168.15662	-239.12366	-482.44180	1190.84827	-102.15376	-107.77687	1200.66077	42.25730	-298.43649	1069.14355	-57.66213	-330.30698	1311.79675	55.67920	-527.79669	908.98566	-108.32429	-60.31360	1000.68829	201.89632	-416.80182	736.44019	-244.12115	-19.45629	734.39856	162.45692	-229.05348	796.43915	112.40903	-469.35489	817.61633	10.82978	-403.58154	987.61053	273.82355	-560.65466	439.69250	86.89315	-241.55261	424.23648	136.15617	-669.65771	147.18629	266.68207				
530	5.290	-142.23523	1269.26563	-161.27701	-278.54111	1444.88196	-118.06298	-364.94827	1318.78345	-194.44652	-223.32378	1169.15173	-239.99760	-484.75552	1191.66150	-101.26213	-108.78907	1201.00195	39.88486	-302.08603	1069.58887	-57.96831	-331.28299	1311.95508	55.39725	-530.95819	910.33374	-107.37328	-60.73729	1000.17981	199.34210	-420.67523	737.26740	-244.79694	-19.63056	734.45929	159.82263	-229.34181	796.00623	111.10490	-470.87759	817.60608	10.36470	-403.86615	987.28571	273.08984	-562.15228	440.01971	84.84338	-242.38742	423.76984	133.82765	-669.83502	145.47664	261.12717				
531	5.300	-144.95496	1270.25403	-161.40988	-280.95084	1446.02380	-118.93787	-367.08942	1319.80298	-194.89555	-225.63947	1169.81262	-240.65285	-487.22147	1193.09802	-102.07738	-109.73618	1201.18750	40.16019	-303.17957	1070.71155	-59.05349	-332.61053	1312.31091	55.22638	-534.55060	911.37872	-107.88699	-61.47189	1000.04120	196.93127	-424.99893	738.37048	-245.80124	-19.50174	735.01233	157.91542	-229.58556	796.99982	107.80756	-471.87881	817.66626	8.87235	-404.22333	986.99890	272.35339	-563.74939	440.28894	82.55927	-243.25989	422.88943	133.15979	-670.15131	143.94693	254.73157				
532	5.310	-146.76888	1271.53687	-162.98734	-282.62582	1446.44556	-118.81738	-369.10449	1320.79614	-194.85353	-227.65207	1170.74487	-241.07277	-489.46503	1194.31067	-100.44562	-111.39694	1201.83301	36.98959	-306.52438	1071.48389	-60.39645	-334.04971	1312.77271	55.10286	-537.61731	912.57520	-107.95351	-62.26539	1000.25696	194.88162	-429.10049	739.93317	-246.83003	-20.13252	734.99164	155.55304	-230.82236	796.90985	106.42445	-473.72058	818.31073	8.14514	-404.58176	986.78326	271.75473	-564.41974	439.94885	80.74162	-244.10260	422.68805	131.55450	-670.54541	142.42336	248.11891				
533	5.320	-149.36078	1271.94727	-162.68982	-284.23291	1447.21631	-119.09013	-371.35797	1321.85535	-195.26294	-230.32928	1172.22961	-242.54953	-491.72388	1195.39160	-100.76186	-113.36224	1202.98218	36.49654	-307.90289	1072.33606	-61.08685	-335.77737	1313.16589	54.97131	-540.78088	913.56775	-107.62549	-63.15279	1000.72339	192.43678	-433.05014	741.13940	-247.65929	-20.23335	735.38196	153.33594	-232.33749	796.51337	104.58158	-477.05252	819.88287	6.10246	-405.37817	986.36377	270.95044	-566.60504	441.23270	76.78889	-244.82034	422.50351	130.00551	-671.29169	140.52815	241.22276				
534	5.330	-150.98608	1273.09558	-164.30623	-286.96536	1448.21729	-119.97581	-373.79715	1322.68347	-195.69514	-232.48674	1172.78027	-242.87544	-494.53555	1196.47156	-100.27824	-114.73609	1202.74341	36.26153	-309.41171	1073.71790	-63.43917	-336.73462	1313.32544	54.81937	-544.23370	914.68890	-108.29432	-63.94637	1000.67969	190.56094	-436.61011	743.10651	-249.03513	-21.13231	735.50543	151.11142	-232.86972	796.70471	102.67553	-477.36868	819.63049	6.20748	-406.12296	986.51080	270.47180	-567.50989	441.30051	75.54341	-245.42516	422.87112	129.47038	-671.97363	138.82074	233.83716				
535	5.340	-153.00444	1273.29163	-164.46465	-288.83621	1448.71057	-119.08050	-375.95209	1323.66345	-196.64835	-234.97614	1173.88196	-244.23769	-497.34076	1197.17773	-100.08985	-116.76143	1203.01221	31.74453	-312.19559	1074.22534	-64.55436	-339.11328	1313.53638	54.90441	-546.91632	915.65802	-108.06213	-65.23508	1000.90210	188.53680	-440.04663	743.93658	-249.73483	-21.80359	735.48175	149.68372	-233.90364	797.63379	100.02695	-480.46637	821.40308	4.56190	-406.76254	986.57135	269.61475	-568.13312	441.38229	73.35767	-246.28986	422.96561	127.74981	-672.74017	136.98709	225.79308				
536	5.350	-156.87881	1274.11450	-165.28549	-291.58142	1449.46106	-120.13417	-378.39523	1324.41858	-196.53867	-237.47377	1175.52344	-244.95615	-499.59799	1198.03259	-99.33405	-119.22289	1203.44360	31.87273	-316.03616	1074.92053	-63.29612	-341.40860	1314.41650	54.35514	-550.23694	916.62445	-108.03803	-66.47704	1001.03857	186.98402	-443.11142	745.10620	-250.33682	-22.90175	735.82935	146.01163	-235.73149	797.32269	98.95126	-480.87595	821.08234	4.23567	-407.33984	986.26202	268.86191	-569.64136	442.52960	70.74071	-247.04015	423.20963	126.69048	-673.63611	134.66187	217.70189				
537	5.360	-158.52411	1275.17432	-166.17776	-293.74768	1450.12170	-120.18733	-381.06912	1325.16077	-196.58548	-239.98189	1176.07324	-244.72159	-502.50626	1199.38635	-99.84897	-120.73818	1204.09802	30.17577	-317.66458	1076.02319	-66.09508	-343.06119	1314.70972	54.20767	-553.16864	917.39569	-108.34833	-67.83635	1001.05200	184.09523	-445.95532	746.11182	-251.51306	-23.62772	736.24292	143.68835	-237.40903	797.44482	98.45803	-483.71054	821.75006	3.55468	-407.84552	986.18140	268.37119	-571.66016	444.07144	68.08635	-247.01476	423.38181	126.05432	-674.53162	133.26454	209.15735				
538	5.370	-160.87505	1276.00085	-166.65717	-297.08737	1450.88855	-121.06890	-383.64899	1325.96643	-197.23547	-242.61243	1176.64233	-246.13493	-505.14307	1199.81641	-99.66355	-122.42741	1203.92029	30.30600	-321.15326	1076.52954	-66.17178	-345.04739	1315.04846	53.82905	-555.57788	918.10895	-108.37884	-69.22630	1001.41772	181.57761	-448.27307	747.25043	-252.69490	-25.05678	736.85828	140.78886	-239.46364	797.28070	96.00942	-484.83441	821.62744	3.19146	-409.61343	986.44440	266.89227	-573.47223	445.03119	65.75980	-246.97667	423.24957	124.53999	-675.54291	131.52757	200.32553				
